<!DOCTYPE svg PUBLIC "-//W3C//DTD SVG 1.1//EN" "http://www.w3.org/Graphics/SVG/1.1/DTD/svg11.dtd">
<!-- Uploaded to: SVG Repo, www.svgrepo.com, Transformed by: SVG Repo Mixer Tools -->
<svg fill="#ffffff" width="800px" height="800px" viewBox="-1.27 0 30.066 30.066" id="_01_-_Home_Button" data-name="01 - Home Button" xmlns="http://www.w3.org/2000/svg">
<g id="SVGRepo_bgCarrier" stroke-width="0"/>
<g id="SVGRepo_tracerCarrier" stroke-linecap="round" stroke-linejoin="round"/>
<g id="SVGRepo_iconCarrier"> <path id="_01_-_Home_Button-2" data-name="01 - Home Button" d="M29.759,9.912a3,3,0,0,0-1.543-2.623L17.457,1.312a3,3,0,0,0-2.914,0L3.784,7.289A3,3,0,0,0,2.241,9.912V28a3,3,0,0,0,3,3h6.5a1,1,0,0,0,1-1V24.912a1,1,0,0,1,1-1h4.51a1,1,0,0,1,1,1V30a1,1,0,0,0,1,1h6.5a3,3,0,0,0,3-3V9.912Zm-2,0V28a1,1,0,0,1-1,1h-5.5V24.912a3,3,0,0,0-3-3h-4.51a3,3,0,0,0-3,3V29h-5.5a1,1,0,0,1-1-1V9.912a1,1,0,0,1,.514-.875L15.514,3.06a1,1,0,0,1,.972,0L27.245,9.037a1,1,0,0,1,.514.875Z" transform="translate(-2.241 -0.934)" fill-rule="evenodd"/> </g>
</svg>