<svg width="36" height="20" viewBox="0 0 36 20" fill="none" xmlns="http://www.w3.org/2000/svg">
<path d="M0 6C0 2.68629 2.68629 0 6 0H36V14C36 17.3137 33.3137 20 30 20H0V6Z" fill="#D9D9D9"/>
<path d="M23.1875 8.6875H18.3125V3.8125C18.3125 3.59701 18.2269 3.39035 18.0745 3.23798C17.9222 3.0856 17.7155 3 17.5 3C17.2845 3 17.0778 3.0856 16.9255 3.23798C16.7731 3.39035 16.6875 3.59701 16.6875 3.8125V8.6875H11.8125C11.597 8.6875 11.3903 8.7731 11.238 8.92548C11.0856 9.07785 11 9.28451 11 9.5C11 9.71549 11.0856 9.92215 11.238 10.0745C11.3903 10.2269 11.597 10.3125 11.8125 10.3125H16.6875V15.1875C16.6875 15.403 16.7731 15.6097 16.9255 15.762C17.0778 15.9144 17.2845 16 17.5 16C17.7155 16 17.9222 15.9144 18.0745 15.762C18.2269 15.6097 18.3125 15.403 18.3125 15.1875V10.3125H23.1875C23.403 10.3125 23.6097 10.2269 23.762 10.0745C23.9144 9.92215 24 9.71549 24 9.5C24 9.28451 23.9144 9.07785 23.762 8.92548C23.6097 8.7731 23.403 8.6875 23.1875 8.6875Z" fill="black"/>
</svg>
