<svg width="103" height="77" viewBox="0 0 103 77" fill="none" xmlns="http://www.w3.org/2000/svg">
<path d="M1.73864 11.6307V8.81818H21.375V11.6307H13.142V35H9.97159V11.6307H1.73864ZM26.2681 8.81818H30.0522L38.9499 30.5511H39.2567L48.1545 8.81818H51.9386V35H48.9727V15.108H48.717L40.5352 35H37.6715L29.4897 15.108H29.234V35H26.2681V8.81818ZM75.4773 8.81818H78.6477V26.1534C78.6477 27.9432 78.2259 29.5412 77.3821 30.9474C76.5469 32.3452 75.3665 33.4489 73.8409 34.2585C72.3153 35.0597 70.5256 35.4602 68.4716 35.4602C66.4176 35.4602 64.6278 35.0597 63.1023 34.2585C61.5767 33.4489 60.392 32.3452 59.5483 30.9474C58.7131 29.5412 58.2955 27.9432 58.2955 26.1534V8.81818H61.4659V25.8977C61.4659 27.1761 61.7472 28.3139 62.3097 29.3111C62.8722 30.2997 63.6733 31.0795 64.7131 31.6506C65.7614 32.2131 67.0142 32.4943 68.4716 32.4943C69.929 32.4943 71.1818 32.2131 72.2301 31.6506C73.2784 31.0795 74.0795 30.2997 74.6335 29.3111C75.196 28.3139 75.4773 27.1761 75.4773 25.8977V8.81818Z" fill="#004C9B"/>
<path d="M7.17045 69V42.8182H16.017C18.071 42.8182 19.75 43.1889 21.054 43.9304C22.3665 44.6634 23.3381 45.6562 23.9688 46.9091C24.5994 48.1619 24.9148 49.5597 24.9148 51.1023C24.9148 52.6449 24.5994 54.0469 23.9688 55.3082C23.3466 56.5696 22.3835 57.5753 21.0795 58.3253C19.7756 59.0668 18.1051 59.4375 16.0682 59.4375H9.72727V56.625H15.9659C17.3722 56.625 18.5014 56.3821 19.3537 55.8963C20.206 55.4105 20.8239 54.7543 21.2074 53.9276C21.5994 53.0923 21.7955 52.1506 21.7955 51.1023C21.7955 50.054 21.5994 49.1165 21.2074 48.2898C20.8239 47.4631 20.2017 46.8153 19.3409 46.3466C18.4801 45.8693 17.3381 45.6307 15.9148 45.6307H10.3409V69H7.17045ZM29.6129 69V49.3636H32.5277V52.3295H32.7322C33.0902 51.358 33.7379 50.5696 34.6754 49.9645C35.6129 49.3594 36.6697 49.0568 37.8459 49.0568C38.0675 49.0568 38.3445 49.0611 38.6768 49.0696C39.0092 49.0781 39.2607 49.0909 39.4311 49.108V52.1761C39.3288 52.1506 39.0945 52.1122 38.728 52.0611C38.37 52.0014 37.9908 51.9716 37.5902 51.9716C36.6357 51.9716 35.7834 52.1719 35.0334 52.5724C34.2919 52.9645 33.7038 53.5099 33.2692 54.2088C32.843 54.8991 32.63 55.6875 32.63 56.5739V69H29.6129ZM50.6428 69.4091C48.7507 69.4091 47.1186 68.9915 45.7464 68.1562C44.3828 67.3125 43.3303 66.1364 42.5888 64.6278C41.8558 63.1108 41.4893 61.3466 41.4893 59.3352C41.4893 57.3239 41.8558 55.5511 42.5888 54.017C43.3303 52.4744 44.3615 51.2727 45.6825 50.4119C47.0121 49.5426 48.5632 49.108 50.3359 49.108C51.3587 49.108 52.3686 49.2784 53.3658 49.6193C54.3629 49.9602 55.2706 50.5142 56.0888 51.2812C56.907 52.0398 57.5589 53.0455 58.0447 54.2983C58.5305 55.5511 58.7734 57.0937 58.7734 58.9261V60.2045H43.6371V57.5966H55.7053C55.7053 56.4886 55.4837 55.5 55.0405 54.6307C54.6058 53.7614 53.9837 53.0753 53.174 52.5724C52.3729 52.0696 51.4268 51.8182 50.3359 51.8182C49.1342 51.8182 48.0945 52.1165 47.2166 52.7131C46.3473 53.3011 45.6783 54.0682 45.2095 55.0142C44.7408 55.9602 44.5064 56.9744 44.5064 58.0568V59.7955C44.5064 61.2784 44.7621 62.5355 45.2734 63.5668C45.7933 64.5895 46.5135 65.3693 47.4339 65.9062C48.3544 66.4347 49.424 66.6989 50.6428 66.6989C51.4354 66.6989 52.1513 66.5881 52.7905 66.3665C53.4382 66.1364 53.9964 65.7955 54.4652 65.3438C54.9339 64.8835 55.2962 64.3125 55.5518 63.6307L58.4666 64.4489C58.1598 65.4375 57.6442 66.3068 56.9197 67.0568C56.1953 67.7983 55.3004 68.3778 54.2351 68.7955C53.1697 69.2045 51.9723 69.4091 50.6428 69.4091ZM63.3629 76.3636V49.3636H66.2777V52.483H66.6357C66.8572 52.142 67.1641 51.7074 67.5561 51.179C67.9567 50.642 68.5277 50.1648 69.2692 49.7472C70.0192 49.321 71.0334 49.108 72.3118 49.108C73.9652 49.108 75.4226 49.5213 76.6839 50.348C77.9453 51.1747 78.9297 52.3466 79.6371 53.8636C80.3445 55.3807 80.6982 57.1705 80.6982 59.233C80.6982 61.3125 80.3445 63.1151 79.6371 64.6406C78.9297 66.1577 77.9496 67.3338 76.6967 68.169C75.4439 68.9957 73.9993 69.4091 72.3629 69.4091C71.1016 69.4091 70.0916 69.2003 69.3331 68.7827C68.5746 68.3565 67.9908 67.875 67.5817 67.3381C67.1726 66.7926 66.8572 66.3409 66.6357 65.983H66.38V76.3636H63.3629ZM66.3288 59.1818C66.3288 60.6648 66.5462 61.973 66.9808 63.1065C67.4155 64.2315 68.0504 65.1136 68.8857 65.7528C69.7209 66.3835 70.7436 66.6989 71.9538 66.6989C73.2152 66.6989 74.2678 66.3665 75.1115 65.7017C75.9638 65.0284 76.603 64.125 77.0291 62.9915C77.4638 61.8494 77.6811 60.5795 77.6811 59.1818C77.6811 57.8011 77.468 56.5568 77.0419 55.4489C76.6243 54.3324 75.9893 53.4503 75.1371 52.8026C74.2933 52.1463 73.2322 51.8182 71.9538 51.8182C70.7266 51.8182 69.6953 52.1293 68.8601 52.7514C68.0249 53.3651 67.3942 54.2259 66.968 55.3338C66.5419 56.4332 66.3288 57.7159 66.3288 59.1818Z" fill="#FFDC00"/>
</svg>
