<?xml version="1.0" encoding="utf-8"?><!-- Uploaded to: SVG Repo, www.svgrepo.com, Generator: SVG Repo Mixer Tools -->
<svg fill="#000000" width="800px" height="800px" viewBox="0 0 30 30" id="_24_-_Save" data-name="24 - Save" xmlns="http://www.w3.org/2000/svg">
  <path id="Path_272" data-name="Path 272" d="M31,10.652a3,3,0,0,0-.962-2.2L22.854,1.8A3,3,0,0,0,20.816,1H4A3,3,0,0,0,1,4V28a3,3,0,0,0,3,3H28a3,3,0,0,0,3-3Zm-2,0V28a1,1,0,0,1-1,1H4a1,1,0,0,1-1-1V4A1,1,0,0,1,4,3H20.816a1,1,0,0,1,.68.266l7.183,6.652A1,1,0,0,1,29,10.652Z" transform="translate(-1 -1)" fill-rule="evenodd"/>
  <path id="Path_273" data-name="Path 273" d="M17,2a1,1,0,0,0-1-1H7.6a1,1,0,0,0-1,1V4.667a3,3,0,0,0,3,3H14a3,3,0,0,0,3-3V2ZM15,3V4.667a1,1,0,0,1-1,1H9.6a1,1,0,0,1-1-1V3H15Z" transform="translate(-1 -1)" fill-rule="evenodd"/>
  <path id="Path_274" data-name="Path 274" d="M23.215,22.667a3,3,0,0,0-3-3h-8.43a3,3,0,0,0-3,3V30a1,1,0,0,0,1,1h12.43a1,1,0,0,0,1-1Zm-2,0V29H10.785V22.667a1,1,0,0,1,1-1h8.43a1,1,0,0,1,1,1Z" transform="translate(-1 -1)" fill-rule="evenodd"/>
</svg>