<?xml version="1.0" encoding="UTF-8"?>
<!DOCTYPE svg PUBLIC "-//W3C//DTD SVG 1.1//EN" "http://www.w3.org/Graphics/SVG/1.1/DTD/svg11.dtd">
<svg xmlns="http://www.w3.org/2000/svg" version="1.1" width="500px" height="500px" style="shape-rendering:geometricPrecision; text-rendering:geometricPrecision; image-rendering:optimizeQuality; fill-rule:evenodd; clip-rule:evenodd" xmlns:xlink="http://www.w3.org/1999/xlink">
<g><path style="opacity:1" fill="#fefefe" d="M -0.5,-0.5 C 166.167,-0.5 332.833,-0.5 499.5,-0.5C 499.5,166.167 499.5,332.833 499.5,499.5C 332.833,499.5 166.167,499.5 -0.5,499.5C -0.5,332.833 -0.5,166.167 -0.5,-0.5 Z"/></g>
<g><path style="opacity:1" fill="#090909" d="M 329.5,54.5 C 332.199,54.4661 334.699,55.1328 337,56.5C 337.342,79.1826 336.842,101.849 335.5,124.5C 333.833,124.5 332.167,124.5 330.5,124.5C 330.645,104.808 331.145,85.1415 332,65.5C 327.962,74.4092 323.795,83.2425 319.5,92C 317.191,92.7562 315.191,92.2562 313.5,90.5C 311.633,84.3476 309.466,78.3476 307,72.5C 305.034,88.4301 304.034,104.43 304,120.5C 301.733,121.935 299.733,121.602 298,119.5C 297.437,103.486 297.771,87.4857 299,71.5C 298.01,65.1808 300.176,60.5141 305.5,57.5C 306.478,57.9767 307.311,58.6433 308,59.5C 310.898,67.1902 313.731,74.8569 316.5,82.5C 320.437,73.0401 324.771,63.7067 329.5,54.5 Z"/></g>
<g><path style="opacity:1" fill="#0d0d0d" d="M 235.5,56.5 C 244.133,57.3772 252.8,57.7105 261.5,57.5C 261.67,58.8221 261.337,59.9887 260.5,61C 254.509,61.4995 248.509,61.6662 242.5,61.5C 242.667,81.5028 242.5,101.503 242,121.5C 240.64,124.551 238.473,125.218 235.5,123.5C 235.167,122.5 234.833,121.5 234.5,120.5C 235.463,101.187 235.797,81.8539 235.5,62.5C 230.5,62.5 225.5,62.5 220.5,62.5C 220.5,61.5 220.5,60.5 220.5,59.5C 224.01,59.332 227.51,58.9987 231,58.5C 232.986,58.4313 234.486,57.7647 235.5,56.5 Z"/></g>
<g><path style="opacity:1" fill="#0a0a0a" d="M 380.5,57.5 C 382.5,57.5 384.5,57.5 386.5,57.5C 381.424,77.0052 380.424,96.6719 383.5,116.5C 385.903,116.607 387.736,115.607 389,113.5C 393.253,106.663 397.253,99.6628 401,92.5C 401.428,81.8252 401.928,71.1586 402.5,60.5C 404.936,60.317 407.103,60.9837 409,62.5C 409.5,82.4972 409.667,102.497 409.5,122.5C 406.956,122.896 404.789,122.229 403,120.5C 401.848,114.23 401.182,107.897 401,101.5C 397.618,109.104 393.118,115.938 387.5,122C 381.691,123.345 377.857,121.178 376,115.5C 371.729,95.6217 373.229,76.2884 380.5,57.5 Z"/></g>
<g><path style="opacity:1" fill="#5185cc" d="M 354.5,251.5 C 354.666,244.492 354.5,237.492 354,230.5C 353.167,229.667 352.333,228.833 351.5,228C 326.585,213.96 301.752,199.793 277,185.5C 276.018,186.759 275.685,188.092 276,189.5C 277.558,191.359 279.391,192.859 281.5,194C 304.167,207 326.833,220 349.5,233C 350.825,238.599 350.825,244.099 349.5,249.5C 346.833,248.833 344.167,248.167 341.5,247.5C 301.535,235.334 261.535,222.834 221.5,210C 214.885,205.719 208.552,201.053 202.5,196C 189.5,183.667 176.5,171.333 163.5,159C 161.254,157.961 159.087,156.794 157,155.5C 156.617,156.056 156.117,156.389 155.5,156.5C 155.703,154.61 155.037,153.11 153.5,152C 137.675,139.322 122.508,125.822 108,111.5C 106.482,105.849 108.482,102.516 114,101.5C 143.435,110.867 172.602,121.034 201.5,132C 232.667,142.278 264.001,151.945 295.5,161C 336.564,187.73 376.231,216.397 414.5,247C 419.419,250.042 424.252,253.209 429,256.5C 430.567,263.068 428.067,266.401 421.5,266.5C 399.12,261.707 376.787,256.707 354.5,251.5 Z"/></g>
<g><path style="opacity:1" fill="#3864b8" d="M 116.5,106.5 C 128.145,113.332 139.145,121.165 149.5,130C 171.901,151.738 194.901,172.738 218.5,193C 229.442,198.315 240.776,202.648 252.5,206C 282.986,215.456 313.653,224.456 344.5,233C 345.993,234.156 345.826,234.99 344,235.5C 302.919,223.697 262.086,210.863 221.5,197C 214.405,192.407 207.738,187.24 201.5,181.5C 174.611,154.596 146.278,129.596 116.5,106.5 Z"/></g>
<g><path style="opacity:1" fill="#feeba8" d="M 135.5,200.5 C 148.728,212.781 162.728,224.115 177.5,234.5C 177.611,235.117 177.944,235.617 178.5,236C 170.16,239.505 162.827,244.505 156.5,251C 147.762,251.42 139.095,252.087 130.5,253C 113.322,237.922 95.9883,223.089 78.5,208.5C 69.2498,199.148 69.2498,189.648 78.5,180C 86.8653,171.812 96.1986,170.478 106.5,176C 116.059,184.4 125.725,192.567 135.5,200.5 Z"/></g>
<g><path style="opacity:1" fill="#f6d618" d="M 257.5,173.5 C 264.348,173.393 269.848,176.06 274,181.5C 275.756,186.406 274.089,189.073 269,189.5C 260.558,189.216 255.391,185.05 253.5,177C 254.731,175.595 256.064,174.429 257.5,173.5 Z"/></g>
<g><path style="opacity:1" fill="#fada1f" d="M 354.5,251.5 C 353.721,266.179 353.721,280.845 354.5,295.5C 360.854,300.266 362.187,306.266 358.5,313.5C 362.04,329.354 364.207,345.354 365,361.5C 361.448,362.972 359.782,361.638 360,357.5C 359.806,363.519 356.64,366.185 350.5,365.5C 347.786,365.06 345.62,363.726 344,361.5C 343.388,364.032 341.888,364.865 339.5,364C 337.749,347.396 338.749,330.896 342.5,314.5C 338.682,305.962 340.682,299.296 348.5,294.5C 349.499,279.515 349.833,264.515 349.5,249.5C 350.825,244.099 350.825,238.599 349.5,233C 326.833,220 304.167,207 281.5,194C 279.391,192.859 277.558,191.359 276,189.5C 275.685,188.092 276.018,186.759 277,185.5C 301.752,199.793 326.585,213.96 351.5,228C 352.333,228.833 353.167,229.667 354,230.5C 354.5,237.492 354.666,244.492 354.5,251.5 Z"/></g>
<g><path style="opacity:1" fill="#355fb5" d="M 341.5,247.5 C 336.624,268.961 329.457,289.628 320,309.5C 317.736,312.433 314.902,314.6 311.5,316C 304.5,316.667 297.5,316.667 290.5,316C 286.312,314.369 281.979,313.536 277.5,313.5C 253.152,293.986 228.652,274.653 204,255.5C 186.787,261.543 175.62,273.21 170.5,290.5C 168.589,289.925 166.922,288.925 165.5,287.5C 165.124,284.593 165.624,281.593 167,278.5C 171.493,268.52 176.16,258.853 181,249.5C 181.979,245.705 181.146,242.372 178.5,239.5C 178.833,239.167 179.167,238.833 179.5,238.5C 183.857,242.64 184.523,247.306 181.5,252.5C 191.153,250.982 200.82,252.149 210.5,256C 218.452,260.555 225.952,265.722 233,271.5C 233.5,271.167 234,270.833 234.5,270.5C 232.957,267.914 231.291,265.414 229.5,263C 234.846,262.568 240.18,262.734 245.5,263.5C 245.159,260.484 243.993,257.818 242,255.5C 234.36,247.023 224.86,242.356 213.5,241.5C 206.241,243.105 198.907,243.605 191.5,243C 202.221,238.542 212.721,233.709 223,228.5C 223.667,226.167 223.667,223.833 223,221.5C 220.412,217.326 218.079,212.993 216,208.5C 212.074,206.409 208.574,203.742 205.5,200.5C 193.148,208.527 184.482,219.527 179.5,233.5C 179.043,234.298 178.376,234.631 177.5,234.5C 162.728,224.115 148.728,212.781 135.5,200.5C 142.36,185.917 149.027,171.251 155.5,156.5C 156.117,156.389 156.617,156.056 157,155.5C 159.087,156.794 161.254,157.961 163.5,159C 176.5,171.333 189.5,183.667 202.5,196C 208.552,201.053 214.885,205.719 221.5,210C 261.535,222.834 301.535,235.334 341.5,247.5 Z"/></g>
<g><path style="opacity:1" fill="#fada1a" d="M 78.5,210.5 C 95.1282,224.624 111.628,238.957 128,253.5C 128.692,254.437 128.525,255.103 127.5,255.5C 107.264,242.611 87.2635,229.277 67.5,215.5C 66.5713,214.311 66.238,212.978 66.5,211.5C 69.5212,210.995 72.5212,210.328 75.5,209.5C 76.5837,209.685 77.5837,210.018 78.5,210.5 Z"/></g>
<g><path style="opacity:1" fill="#5184cb" d="M 165.5,287.5 C 164.35,292.316 164.184,297.316 165,302.5C 167.563,313.188 170.73,323.688 174.5,334C 174.167,334.833 173.833,335.667 173.5,336.5C 171.174,334.003 169.007,331.336 167,328.5C 165.292,326.457 163.292,324.79 161,323.5C 160,329.5 159,335.5 158,341.5C 148.254,327.268 143.587,311.602 144,294.5C 146.046,289.01 148.046,283.677 150,278.5C 143.881,285.462 137.047,291.462 129.5,296.5C 127.617,296.124 126.117,295.124 125,293.5C 120.849,286.231 118.183,278.564 117,270.5C 119.55,264.695 123.05,259.695 127.5,255.5C 128.525,255.103 128.692,254.437 128,253.5C 111.628,238.957 95.1282,224.624 78.5,210.5C 78.5,209.833 78.5,209.167 78.5,208.5C 95.9883,223.089 113.322,237.922 130.5,253C 139.095,252.087 147.762,251.42 156.5,251C 162.827,244.505 170.16,239.505 178.5,236C 177.944,235.617 177.611,235.117 177.5,234.5C 178.376,234.631 179.043,234.298 179.5,233.5C 184.482,219.527 193.148,208.527 205.5,200.5C 208.574,203.742 212.074,206.409 216,208.5C 218.079,212.993 220.412,217.326 223,221.5C 223.667,223.833 223.667,226.167 223,228.5C 212.721,233.709 202.221,238.542 191.5,243C 198.907,243.605 206.241,243.105 213.5,241.5C 224.86,242.356 234.36,247.023 242,255.5C 243.993,257.818 245.159,260.484 245.5,263.5C 240.18,262.734 234.846,262.568 229.5,263C 231.291,265.414 232.957,267.914 234.5,270.5C 234,270.833 233.5,271.167 233,271.5C 225.952,265.722 218.452,260.555 210.5,256C 200.82,252.149 191.153,250.982 181.5,252.5C 184.523,247.306 183.857,242.64 179.5,238.5C 179.167,238.833 178.833,239.167 178.5,239.5C 181.146,242.372 181.979,245.705 181,249.5C 176.16,258.853 171.493,268.52 167,278.5C 165.624,281.593 165.124,284.593 165.5,287.5 Z"/></g>
<g><path style="opacity:1" fill="#fdeba8" d="M 277.5,313.5 C 285.475,320.635 293.641,327.635 302,334.5C 304.893,339.314 305.226,344.314 303,349.5C 302.617,348.944 302.117,348.611 301.5,348.5C 301.16,346.321 300.16,344.488 298.5,343C 286.144,341.989 277.977,347.489 274,359.5C 272.849,363.829 273.682,367.662 276.5,371C 278.167,371.667 279.833,371.667 281.5,371C 284.551,368.286 287.218,365.286 289.5,362C 287.05,358.547 284.217,355.38 281,352.5C 281.195,350.255 282.362,348.422 284.5,347C 289.104,343.255 293.938,342.755 299,345.5C 300.128,347.345 300.628,349.345 300.5,351.5C 300.611,352.117 300.944,352.617 301.5,353C 294.715,362.617 287.048,371.45 278.5,379.5C 275.071,379.454 271.404,379.288 267.5,379C 266.054,377.702 264.721,377.535 263.5,378.5C 254.678,370.845 246.012,363.012 237.5,355C 228.469,346.304 219.803,337.304 211.5,328C 210.906,327.536 210.239,327.369 209.5,327.5C 196.802,314.801 183.802,302.468 170.5,290.5C 175.62,273.21 186.787,261.543 204,255.5C 228.652,274.653 253.152,293.986 277.5,313.5 Z"/></g>
<g><path style="opacity:1" fill="#596e9d" d="M 345.5,314.5 C 349.313,314.618 353.313,314.452 357.5,314C 354.893,316.105 351.893,316.938 348.5,316.5C 347.933,328.515 347.099,340.515 346,352.5C 345.046,340.587 345.546,328.754 347.5,317C 347.361,315.699 346.695,314.866 345.5,314.5 Z"/></g>
<g><path style="opacity:1" fill="#4969a5" d="M 354.5,327.5 C 356.726,333.881 357.559,340.547 357,347.5C 355.558,340.904 354.724,334.237 354.5,327.5 Z"/></g>
<g><path style="opacity:1" fill="#5a75b2" d="M 287.5,333.5 C 302.152,334.005 302.152,334.838 287.5,336C 277.159,341.344 269.992,349.51 266,360.5C 264.622,365.933 264.122,371.266 264.5,376.5C 262.579,372.711 262.079,368.711 263,364.5C 267.003,350.686 275.169,340.353 287.5,333.5 Z"/></g>
<g><path style="opacity:1" fill="#fcdb16" d="M 216.5,336.5 C 231.386,351.555 246.719,366.055 262.5,380C 265.309,381.741 268.309,382.908 271.5,383.5C 266.013,389.499 259.347,390.999 251.5,388C 239.587,370.934 227.92,353.768 216.5,336.5 Z"/></g>
<g><path style="opacity:1" fill="#5c74a5" d="M 209.5,327.5 C 210.239,327.369 210.906,327.536 211.5,328C 219.803,337.304 228.469,346.304 237.5,355C 246.012,363.012 254.678,370.845 263.5,378.5C 266.834,380.663 270.5,381.996 274.5,382.5C 273.791,383.404 272.791,383.737 271.5,383.5C 268.309,382.908 265.309,381.741 262.5,380C 246.719,366.055 231.386,351.555 216.5,336.5C 214.333,333.283 211.999,330.283 209.5,327.5 Z"/></g>
<g><path style="opacity:1" fill="#5471b3" d="M 301.5,348.5 C 301.737,349.791 301.404,350.791 300.5,351.5C 300.628,349.345 300.128,347.345 299,345.5C 293.938,342.755 289.104,343.255 284.5,347C 282.362,348.422 281.195,350.255 281,352.5C 284.217,355.38 287.05,358.547 289.5,362C 287.218,365.286 284.551,368.286 281.5,371C 279.833,371.667 278.167,371.667 276.5,371C 273.682,367.662 272.849,363.829 274,359.5C 277.977,347.489 286.144,341.989 298.5,343C 300.16,344.488 301.16,346.321 301.5,348.5 Z"/></g>
<g><path style="opacity:1" fill="#f6e5a8" d="M 278.5,353.5 C 280.628,355.446 282.961,357.279 285.5,359C 286.293,360.085 286.96,361.252 287.5,362.5C 285.356,365.982 282.356,368.315 278.5,369.5C 277.353,369.182 276.519,368.516 276,367.5C 274.912,362.413 275.746,357.747 278.5,353.5 Z"/></g>
<g><path style="opacity:1" fill="#efd430" d="M 263.5,378.5 C 264.721,377.535 266.054,377.702 267.5,379C 271.404,379.288 275.071,379.454 278.5,379.5C 277.167,380.5 275.833,381.5 274.5,382.5C 270.5,381.996 266.834,380.663 263.5,378.5 Z"/></g>
<g><path style="opacity:1" fill="#111111" d="M 212.5,396.5 C 226.23,394.73 230.064,400.063 224,412.5C 221.667,416.167 218.667,419.167 215,421.5C 213.964,424.753 213.297,428.086 213,431.5C 212.29,432.973 211.124,433.64 209.5,433.5C 209.724,429.821 210.058,426.154 210.5,422.5C 207.654,422.97 205.321,422.137 203.5,420C 205.891,419.713 208.224,419.213 210.5,418.5C 212.145,412.943 213.145,407.277 213.5,401.5C 214.5,401.5 215.5,401.5 216.5,401.5C 216.328,406.533 216.161,411.533 216,416.5C 220.292,412.71 223.125,408.044 224.5,402.5C 223.952,399.458 222.119,398.124 219,398.5C 215.343,398.994 212.01,400.327 209,402.5C 207.77,401.725 207.437,400.725 208,399.5C 209.652,398.601 211.152,397.601 212.5,396.5 Z"/></g>
<g><path style="opacity:1" fill="#181818" d="M 310.5,410.5 C 322.623,410.739 326.123,416.405 321,427.5C 319.622,429.213 317.955,430.547 316,431.5C 316.124,436.136 316.29,440.802 316.5,445.5C 315.178,445.67 314.011,445.337 313,444.5C 313.267,439.145 311.767,434.478 308.5,430.5C 309.732,427.7 310.399,424.7 310.5,421.5C 310.167,418.833 309.833,416.167 309.5,413.5C 308.232,414.428 306.899,414.595 305.5,414C 306.955,412.374 308.622,411.208 310.5,410.5 Z"/></g>
<g><path style="opacity:1" fill="#121212" d="M 240.5,413.5 C 243.766,413.433 245.266,415.099 245,418.5C 248.353,414.745 251.853,414.578 255.5,418C 251.183,416.536 247.683,417.702 245,421.5C 243.796,425.716 243.13,430.049 243,434.5C 242.586,434.957 242.086,435.291 241.5,435.5C 240.503,428.197 240.169,420.863 240.5,413.5 Z"/></g>
<g><path style="opacity:1" fill="#151515" d="M 279.5,413.5 C 287.943,413.489 289.776,417.155 285,424.5C 282.622,426.709 280.455,429.042 278.5,431.5C 279.741,436.44 281.741,436.773 284.5,432.5C 285.714,435.493 284.548,437.16 281,437.5C 275.759,435.343 273.592,431.343 274.5,425.5C 273.982,420.542 275.648,416.542 279.5,413.5 Z"/></g>
<g><path style="opacity:1" fill="#f1f1f1" d="M 312.5,412.5 C 315.044,412.104 317.211,412.771 319,414.5C 320.332,419.595 319.165,423.928 315.5,427.5C 314.917,422.368 313.917,417.368 312.5,412.5 Z"/></g>
<g><path style="opacity:1" fill="#e8e8e8" d="M 281.5,415.5 C 282.5,415.5 283.5,415.5 284.5,415.5C 284.275,420.244 282.108,423.91 278,426.5C 277.657,422.362 278.824,418.695 281.5,415.5 Z"/></g>
</svg>
